<svg xmlns="http://www.w3.org/2000/svg" viewBox="0 0 64 64">
  <rect width="64" height="64" rx="15" fill="#16283f" />
  <rect x="7" y="9" width="50" height="48" rx="11" fill="#f7f6f1" />
  <path d="M7 20c0-6 5-11 11-11h28c6 0 11 5 11 11v7H7z" fill="#a82f26" />
  <path d="M20 6v9M44 6v9" stroke="#f7f6f1" stroke-width="5" stroke-linecap="round" />
  <path d="m16 38 3-10 9 6h8l9-6 3 10v7c0 8-7 13-16 13s-16-5-16-13z" fill="#16283f" />
  <path d="m20 32 5 3-6 4zM44 32l-5 3 6 4z" fill="#a82f26" />
  <circle cx="26" cy="43" r="2.4" fill="#f7f6f1" />
  <circle cx="38" cy="43" r="2.4" fill="#f7f6f1" />
  <path d="m29 49 3-2 3 2-3 3z" fill="#a82f26" />
  <path d="M21 49h-8M43 49h8M22 53l-7 3M42 53l7 3" stroke="#16283f" stroke-width="2" stroke-linecap="round" />
</svg>
